.
 
http://www.scenetime.com    -  Hottest private tracker on the net. !!!

Sign up will close shortly !!  Join now 

        Seed back for speed


...................................NFO:.................................................








































          
          
              
              
                    
                    
                    
                    

Satan.Hates.You.2010.DVDSCR.x264-SiC

Poster:
[img]http://img854.imageshack.us/img854/7743/satanhatesyouoriginal.jpg[/img]

IMDB Link:
http://www.imdb.com/title/tt0462516/

Description:
Inspired by films from the golden age of religious cinema such as A THIEF IN THE NIGHT (1972), IF FOOTMEN TIRE YOU, WHAT WILL HORSES DO? (1971) and STALKED (1969), SATAN HATES YOU is a graphic horror film that tells the stories of two individuals and their personal struggles with Lucifer himself. 

MediaInfo:
General
Unique ID                        : 193324580929318527494720631491978022347 (0x9170F5BE9D2F1261ABF6922D51A74DCB)
Complete name                    : Satan.Hates.You.2010.DVDSCR.x264-SiC\Satan.Hates.You.2010.DVDSCR.x264-SiC.mkv
Format                           : Matroska
File size                        : 894 MiB
Duration                         : 1h 34mn
Overall bit rate                 : 1 321 Kbps
Encoded date                     : UTC 2011-08-24 15:17:47
Writing application              : mkvmerge v4.8.0 ('I Got The...') built on May 24 2011 03:12:58
Writing library                  : libebml v1.2.0 + libmatroska v1.1.0

Video
ID                               : 1
Format                           : AVC
Format/Info                      : Advanced Video Codec
Format profile                   : High@L3.0
Format settings, CABAC           : Yes
Format settings, ReFrames        : 4 frames
Codec ID                         : V_MPEG4/ISO/AVC
Duration                         : 1h 34mn
Bit rate                         : 999 Kbps
Width                            : 640 pixels
Height                           : 352 pixels
Display aspect ratio             : 16:9
Frame rate                       : 29.970 fps
Color space                      : YUV
Chroma subsampling               : 4:2:0
Bit depth                        : 8 bits
Scan type                        : Progressive
Bits/(Pixel*Frame)               : 0.148
Stream size                      : 659 MiB (74%)
Writing library                  : x264 core 115 r1995 c1e60b9
Encoding settings                : cabac=1 / ref=3 / deblock=1:0:0 / analyse=0x3:0x113 / me=hex / subme=7 / psy=1 / psy_rd=1.00:0.00 / mixed_ref=1 / me_range=16 / chroma_me=1 / trellis=1 / 8x8dct=1 / cqm=0 / deadzone=21,11 / fast_pskip=1 / chroma_qp_offset=-2 / threads=3 / sliced_threads=0 / nr=0 / decimate=1 / interlaced=0 / bluray_compat=0 / constrained_intra=0 / bframes=3 / b_pyramid=2 / b_adapt=1 / b_bias=0 / direct=1 / weightb=1 / open_gop=0 / weightp=2 / keyint=250 / keyint_min=25 / scenecut=40 / intra_refresh=0 / rc_lookahead=40 / rc=2pass / mbtree=1 / bitrate=999 / ratetol=1.0 / qcomp=0.60 / qpmin=0 / qpmax=69 / qpstep=4 / cplxblur=20.0 / qblur=0.5 / ip_ratio=1.40 / aq=1:1.00
Language                         : English

Audio
ID                               : 2
Format                           : AC-3
Format/Info                      : Audio Coding 3
Mode extension                   : CM (complete main)
Codec ID                         : A_AC3
Duration                         : 1h 34mn
Bit rate mode                    : Constant
Bit rate                         : 320 Kbps
Channel(s)                       : 2 channels
Channel positions                : Front: L R
Sampling rate                    : 44.1 KHz
Bit depth                        : 16 bits
Compression mode                 : Lossy
Stream size                      : 217 MiB (24%)



Screenshots:
[img]http://img195.imageshack.us/img195/1260/vlcsnap2011082422h36m58.png[/img]
[img]http://img30.imageshack.us/img30/5417/vlcsnap2011082422h37m18.png[/img]
[img]http://img714.imageshack.us/img714/9893/vlcsnap2011082422h37m42.png[/img]
[img]http://img846.imageshack.us/img846/7959/vlcsnap2011082422h38m58.png[/img]
[img]http://img847.imageshack.us/img847/9453/vlcsnap2011082422h39m13.png[/img]
[img]http://img716.imageshack.us/img716/7104/vlcsnap2011082422h39m40.png[/img]

Note : From what I can tell, there are absolutely no watermarks or warnings of any kind during the movie. There is one screen at the beginning, and one at the end, stating that it's for promo purposes only, but saw nothing during the film when scanned. 

Source: Our own

Encoder: thefuzz

Enjoy!

Respects to CaptainHomey, Cyanide, CM8, Rx, THC, ELEKTRI4KA, 
Killerhz, PA, YeFsTe, BoxSlots, MrRep and everyone in the struggle...